<svg width="206" height="92" xmlns="http://www.w3.org/2000/svg"><path d="M109.889 89.382c0-1.446 1.16-2.618 2.59-2.618s2.59 1.172 2.59 2.618S113.91 92 112.48 92s-2.59-1.172-2.59-2.618zm18.13 0c0-1.446 1.16-2.618 2.59-2.618 1.431 0 2.59 1.172 2.59 2.618S132.04 92 130.61 92s-2.59-1.172-2.59-2.618zm18.131 0c0-1.446 1.16-2.618 2.59-2.618s2.59 1.172 2.59 2.618S150.17 92 148.74 92s-2.59-1.172-2.59-2.618zm18.13 0c0-1.446 1.16-2.618 2.59-2.618 1.431 0 2.591 1.172 2.591 2.618S168.301 92 166.871 92s-2.59-1.172-2.59-2.618zm18.131 0c0-1.446 1.16-2.618 2.59-2.618 1.431 0 2.59 1.172 2.59 2.618S186.433 92 185.002 92c-1.43 0-2.59-1.172-2.59-2.618zm18.131 0c0-1.446 1.16-2.618 2.59-2.618s2.59 1.172 2.59 2.618-1.16 2.618-2.59 2.618-2.59-1.172-2.59-2.618zM109.889 72.18c0-1.446 1.16-2.618 2.59-2.618s2.59 1.172 2.59 2.618-1.16 2.618-2.59 2.618-2.59-1.172-2.59-2.618zm18.13 0c0-1.446 1.16-2.618 2.59-2.618 1.431 0 2.59 1.172 2.59 2.618s-1.159 2.618-2.59 2.618c-1.43 0-2.59-1.172-2.59-2.618zm18.131 0c0-1.446 1.16-2.618 2.59-2.618s2.59 1.172 2.59 2.618-1.16 2.618-2.59 2.618-2.59-1.172-2.59-2.618zm18.13 0c0-1.446 1.16-2.618 2.59-2.618 1.431 0 2.591 1.172 2.591 2.618s-1.16 2.618-2.59 2.618-2.59-1.172-2.59-2.618zm18.131 0c0-1.446 1.16-2.618 2.59-2.618 1.431 0 2.59 1.172 2.59 2.618s-1.159 2.618-2.59 2.618c-1.43 0-2.59-1.172-2.59-2.618zm18.131 0c0-1.446 1.16-2.618 2.59-2.618s2.59 1.172 2.59 2.618-1.16 2.618-2.59 2.618-2.59-1.172-2.59-2.618zm-90.653-17.203c0-1.446 1.16-2.618 2.59-2.618s2.59 1.172 2.59 2.618c0 1.445-1.16 2.617-2.59 2.617s-2.59-1.172-2.59-2.617zm18.13 0c0-1.446 1.16-2.618 2.59-2.618 1.431 0 2.59 1.172 2.59 2.618 0 1.445-1.159 2.617-2.59 2.617-1.43 0-2.59-1.172-2.59-2.617zm18.131 0c0-1.446 1.16-2.618 2.59-2.618s2.59 1.172 2.59 2.618c0 1.445-1.16 2.617-2.59 2.617s-2.59-1.172-2.59-2.617zm18.13 0c0-1.446 1.16-2.618 2.59-2.618 1.431 0 2.591 1.172 2.591 2.618 0 1.445-1.16 2.617-2.59 2.617s-2.59-1.172-2.59-2.617zm18.131 0c0-1.446 1.16-2.618 2.59-2.618 1.431 0 2.59 1.172 2.59 2.618 0 1.445-1.159 2.617-2.59 2.617-1.43 0-2.59-1.172-2.59-2.617zm18.131 0c0-1.446 1.16-2.618 2.59-2.618s2.59 1.172 2.59 2.618c0 1.445-1.16 2.617-2.59 2.617s-2.59-1.172-2.59-2.617zm-90.653-17.952c0-1.445 1.16-2.617 2.59-2.617s2.59 1.172 2.59 2.617c0 1.446-1.16 2.618-2.59 2.618s-2.59-1.172-2.59-2.618zm18.13 0c0-1.445 1.16-2.617 2.59-2.617 1.431 0 2.59 1.172 2.59 2.617 0 1.446-1.159 2.618-2.59 2.618-1.43 0-2.59-1.172-2.59-2.618zm18.131 0c0-1.445 1.16-2.617 2.59-2.617s2.59 1.172 2.59 2.617c0 1.446-1.16 2.618-2.59 2.618s-2.59-1.172-2.59-2.618zm18.13 0c0-1.445 1.16-2.617 2.59-2.617 1.431 0 2.591 1.172 2.591 2.617 0 1.446-1.16 2.618-2.59 2.618s-2.59-1.172-2.59-2.618zm18.131 0c0-1.445 1.16-2.617 2.59-2.617 1.431 0 2.59 1.172 2.59 2.617 0 1.446-1.159 2.618-2.59 2.618-1.43 0-2.59-1.172-2.59-2.618zm18.131 0c0-1.445 1.16-2.617 2.59-2.617s2.59 1.172 2.59 2.617c0 1.446-1.16 2.618-2.59 2.618s-2.59-1.172-2.59-2.618zm-90.653-17.203c0-1.446 1.16-2.618 2.59-2.618s2.59 1.172 2.59 2.618-1.16 2.618-2.59 2.618-2.59-1.172-2.59-2.618zm18.13 0c0-1.446 1.16-2.618 2.59-2.618 1.431 0 2.59 1.172 2.59 2.618s-1.159 2.618-2.59 2.618c-1.43 0-2.59-1.172-2.59-2.618zm18.131 0c0-1.446 1.16-2.618 2.59-2.618s2.59 1.172 2.59 2.618-1.16 2.618-2.59 2.618-2.59-1.172-2.59-2.618zm18.13 0c0-1.446 1.16-2.618 2.59-2.618 1.431 0 2.591 1.172 2.591 2.618s-1.16 2.618-2.59 2.618-2.59-1.172-2.59-2.618zm18.131 0c0-1.446 1.16-2.618 2.59-2.618 1.431 0 2.59 1.172 2.59 2.618s-1.159 2.618-2.59 2.618c-1.43 0-2.59-1.172-2.59-2.618zm18.131 0c0-1.446 1.16-2.618 2.59-2.618s2.59 1.172 2.59 2.618-1.16 2.618-2.59 2.618-2.59-1.172-2.59-2.618zM109.889 2.618c0-1.446 1.16-2.618 2.59-2.618s2.59 1.172 2.59 2.618-1.16 2.618-2.59 2.618-2.59-1.172-2.59-2.618zm18.13 0c0-1.446 1.16-2.618 2.59-2.618 1.431 0 2.59 1.172 2.59 2.618s-1.159 2.618-2.59 2.618c-1.43 0-2.59-1.172-2.59-2.618zm18.131 0c0-1.446 1.16-2.618 2.59-2.618s2.59 1.172 2.59 2.618-1.16 2.618-2.59 2.618-2.59-1.172-2.59-2.618zm18.13 0c0-1.446 1.16-2.618 2.59-2.618 1.431 0 2.591 1.172 2.591 2.618s-1.16 2.618-2.59 2.618-2.59-1.172-2.59-2.618zm18.131 0c0-1.446 1.16-2.618 2.59-2.618 1.431 0 2.59 1.172 2.59 2.618s-1.159 2.618-2.59 2.618c-1.43 0-2.59-1.172-2.59-2.618zm18.131 0c0-1.446 1.16-2.618 2.59-2.618s2.59 1.172 2.59 2.618-1.16 2.618-2.59 2.618-2.59-1.172-2.59-2.618zM0 89.382c0-1.446 1.16-2.618 2.59-2.618s2.59 1.172 2.59 2.618S4.02 92 2.59 92 0 90.828 0 89.382zm18.13 0c0-1.446 1.16-2.618 2.59-2.618 1.431 0 2.59 1.172 2.59 2.618S22.152 92 20.72 92c-1.43 0-2.59-1.172-2.59-2.618zm18.131 0c0-1.446 1.16-2.618 2.59-2.618s2.59 1.172 2.59 2.618S40.281 92 38.851 92s-2.59-1.172-2.59-2.618zm18.13 0c0-1.446 1.16-2.618 2.591-2.618 1.43 0 2.59 1.172 2.59 2.618S58.412 92 56.982 92s-2.59-1.172-2.59-2.618zm18.132 0c0-1.446 1.16-2.618 2.59-2.618s2.59 1.172 2.59 2.618S76.543 92 75.113 92s-2.59-1.172-2.59-2.618zm18.13 0c0-1.446 1.16-2.618 2.59-2.618s2.59 1.172 2.59 2.618S94.673 92 93.243 92s-2.59-1.172-2.59-2.618zM0 72.18c0-1.446 1.16-2.618 2.59-2.618s2.59 1.172 2.59 2.618-1.16 2.618-2.59 2.618S0 73.625 0 72.179zm18.13 0c0-1.446 1.16-2.618 2.59-2.618 1.431 0 2.59 1.172 2.59 2.618s-1.159 2.618-2.59 2.618c-1.43 0-2.59-1.172-2.59-2.618zm18.131 0c0-1.446 1.16-2.618 2.59-2.618s2.59 1.172 2.59 2.618-1.16 2.618-2.59 2.618-2.59-1.172-2.59-2.618zm18.13 0c0-1.446 1.16-2.618 2.591-2.618 1.43 0 2.59 1.172 2.59 2.618s-1.16 2.618-2.59 2.618-2.59-1.172-2.59-2.618zm18.132 0c0-1.446 1.16-2.618 2.59-2.618s2.59 1.172 2.59 2.618-1.16 2.618-2.59 2.618-2.59-1.172-2.59-2.618zm18.13 0c0-1.446 1.16-2.618 2.59-2.618s2.59 1.172 2.59 2.618-1.16 2.618-2.59 2.618-2.59-1.172-2.59-2.618zM0 54.976c0-1.446 1.16-2.618 2.59-2.618s2.59 1.172 2.59 2.618c0 1.445-1.16 2.617-2.59 2.617S0 56.421 0 54.976zm18.13 0c0-1.446 1.16-2.618 2.59-2.618 1.431 0 2.59 1.172 2.59 2.618 0 1.445-1.159 2.617-2.59 2.617-1.43 0-2.59-1.172-2.59-2.617zm18.131 0c0-1.446 1.16-2.618 2.59-2.618s2.59 1.172 2.59 2.618c0 1.445-1.16 2.617-2.59 2.617s-2.59-1.172-2.59-2.617zm18.13 0c0-1.446 1.16-2.618 2.591-2.618 1.43 0 2.59 1.172 2.59 2.618 0 1.445-1.16 2.617-2.59 2.617s-2.59-1.172-2.59-2.617zm18.132 0c0-1.446 1.16-2.618 2.59-2.618s2.59 1.172 2.59 2.618c0 1.445-1.16 2.617-2.59 2.617s-2.59-1.172-2.59-2.617zm18.13 0c0-1.446 1.16-2.618 2.59-2.618s2.59 1.172 2.59 2.618c0 1.445-1.16 2.617-2.59 2.617s-2.59-1.172-2.59-2.617zM0 37.024c0-1.445 1.16-2.617 2.59-2.617s2.59 1.172 2.59 2.617c0 1.446-1.16 2.618-2.59 2.618S0 38.47 0 37.024zm18.13 0c0-1.445 1.16-2.617 2.59-2.617 1.431 0 2.59 1.172 2.59 2.617 0 1.446-1.159 2.618-2.59 2.618-1.43 0-2.59-1.172-2.59-2.618zm18.131 0c0-1.445 1.16-2.617 2.59-2.617s2.59 1.172 2.59 2.617c0 1.446-1.16 2.618-2.59 2.618s-2.59-1.172-2.59-2.618zm18.13 0c0-1.445 1.16-2.617 2.591-2.617 1.43 0 2.59 1.172 2.59 2.617 0 1.446-1.16 2.618-2.59 2.618s-2.59-1.172-2.59-2.618zm18.132 0c0-1.445 1.16-2.617 2.59-2.617s2.59 1.172 2.59 2.617c0 1.446-1.16 2.618-2.59 2.618s-2.59-1.172-2.59-2.618zm18.13 0c0-1.445 1.16-2.617 2.59-2.617s2.59 1.172 2.59 2.617c0 1.446-1.16 2.618-2.59 2.618s-2.59-1.172-2.59-2.618zM0 19.821c0-1.446 1.16-2.618 2.59-2.618s2.59 1.172 2.59 2.618-1.16 2.618-2.59 2.618S0 21.267 0 19.821zm18.13 0c0-1.446 1.16-2.618 2.59-2.618 1.431 0 2.59 1.172 2.59 2.618s-1.159 2.618-2.59 2.618c-1.43 0-2.59-1.172-2.59-2.618zm18.131 0c0-1.446 1.16-2.618 2.59-2.618s2.59 1.172 2.59 2.618-1.16 2.618-2.59 2.618-2.59-1.172-2.59-2.618zm18.13 0c0-1.446 1.16-2.618 2.591-2.618 1.43 0 2.59 1.172 2.59 2.618s-1.16 2.618-2.59 2.618-2.59-1.172-2.59-2.618zm18.132 0c0-1.446 1.16-2.618 2.59-2.618s2.59 1.172 2.59 2.618-1.16 2.618-2.59 2.618-2.59-1.172-2.59-2.618zm18.13 0c0-1.446 1.16-2.618 2.59-2.618s2.59 1.172 2.59 2.618-1.16 2.618-2.59 2.618-2.59-1.172-2.59-2.618zM0 2.618C0 1.172 1.16 0 2.59 0s2.59 1.172 2.59 2.618-1.16 2.618-2.59 2.618S0 4.064 0 2.618zm18.13 0C18.13 1.172 19.29 0 20.72 0c1.431 0 2.59 1.172 2.59 2.618s-1.159 2.618-2.59 2.618c-1.43 0-2.59-1.172-2.59-2.618zm18.131 0c0-1.446 1.16-2.618 2.59-2.618s2.59 1.172 2.59 2.618-1.16 2.618-2.59 2.618-2.59-1.172-2.59-2.618zm18.13 0c0-1.446 1.16-2.618 2.591-2.618 1.43 0 2.59 1.172 2.59 2.618s-1.16 2.618-2.59 2.618-2.59-1.172-2.59-2.618zm18.132 0c0-1.446 1.16-2.618 2.59-2.618s2.59 1.172 2.59 2.618-1.16 2.618-2.59 2.618-2.59-1.172-2.59-2.618zm18.13 0c0-1.446 1.16-2.618 2.59-2.618s2.59 1.172 2.59 2.618-1.16 2.618-2.59 2.618-2.59-1.172-2.59-2.618z" fill="#FF0AFF" fill-rule="evenodd"/></svg>